<svg width="758" height="758" xmlns="http://www.w3.org/2000/svg" xmlns:xlink="http://www.w3.org/1999/xlink" overflow="hidden"><defs><clipPath id="clip0"><path d="M108.327 50.84 562.037 88.1746 524.703 541.885 70.9925 504.55Z" fill-rule="evenodd" clip-rule="evenodd"/></clipPath><clipPath id="clip1"><path d="M108.327 50.84 562.037 88.1746 524.703 541.885 70.9925 504.55Z" fill-rule="evenodd" clip-rule="evenodd"/></clipPath><clipPath id="clip2"><path d="M108.327 50.84 562.037 88.1746 524.703 541.885 70.9925 504.55Z" fill-rule="evenodd" clip-rule="evenodd"/></clipPath></defs><g transform="translate(1 1)"><rect x="0" y="0" width="756" height="756" fill="#0085FF"/><g clip-path="url(#clip0)"><g clip-path="url(#clip1)"><g clip-path="url(#clip2)"><path d="M540.191 105.762C529.003 104.841 519.173 113.177 518.252 124.364 517.715 130.9 520.353 136.958 524.866 141.065 522.505 145.526 519.612 150.697 516.158 156.421 510.029 166.525 502.133 178.296 492.318 190.661 488.297 188.03 483.852 185.977 479.078 184.693 479.68 168.404 478.938 151.504 477.937 137.746 477.69 134.311 477.427 131.068 477.158 128.077 483.903 125.217 488.89 118.825 489.532 111.015 490.453 99.8274 482.117 89.9969 470.93 89.0763 459.728 88.1546 449.911 96.4914 448.991 107.679 448.129 118.147 455.368 127.427 465.484 129.333 465.783 132.648 466.068 136.295 466.335 140.165 467.243 153.009 467.871 168.422 467.373 183.115 453.818 183.018 441.457 188.887 432.943 198.334 421.132 158.066 387.53 125.622 345.757 117.431 285.039 105.521 226.248 148.455 214.428 213.334 210.053 237.355 212.749 261.01 220.943 281.883 185.179 283.163 153.536 310.768 146.419 349.827 138.221 394.903 166.164 436.151 207.932 446.418 226.516 450.973 245.105 450.216 263.237 445.505 253.706 451.732 243.839 457.625 233.649 463.046 221.388 469.578 216.734 484.808 223.265 497.083 229.797 509.344 245.027 513.998 257.288 507.466 290.572 489.74 320.272 468.125 346.329 445.219 385.445 410.828 416.423 373.509 439.056 341.385 450.374 325.31 459.606 310.527 466.733 297.94 470.289 291.653 473.341 285.91 475.857 280.751 477.161 278.125 478.311 275.655 479.353 273.329 497.727 268.234 511.724 251.96 512.946 231.848 513.72 219.045 509.165 207.156 501.222 198.32 511.67 185.183 520.044 172.7 526.485 162.022 530.053 156.098 533.031 150.739 535.462 146.102 535.929 146.182 536.384 146.247 536.855 146.286 548.042 147.207 557.857 138.884 558.778 127.696 559.699 116.509 551.379 106.682 540.191 105.762Z" fill="#FFFFFF"/><path d="M124.451 344.578C131.462 306.138 159.15 275.768 193.667 266.091 189.351 247.224 188.925 227.505 192.46 208.086 199.691 168.325 222.373 135.606 252.795 116.071 231.742 101.207 204.8 94.8911 178.203 100.481 125.165 111.618 90.185 166.395 100.066 222.829 103.727 243.733 113.021 261.908 125.972 275.966 97.2371 289.228 79.7639 322.333 85.7077 356.319 90.6637 384.691 110.462 404.971 135.095 411.738 124.397 391.997 120.102 368.462 124.451 344.578Z" fill="#FFFFFF"/></g></g></g><g><g><g><path d="M583.405 476.926C567.086 476.926 554.265 463.716 554.265 447.785 554.265 431.855 567.475 418.645 583.405 418.645 599.724 418.645 612.546 431.855 612.546 447.785 612.546 463.716 599.335 476.926 583.405 476.926ZM649.069 429.524C647.515 424.084 645.572 419.033 642.852 414.371L649.069 396.109 635.081 382.122 616.82 388.339C612.157 385.619 607.106 383.676 601.667 382.122L593.119 365.026 573.692 365.026 565.144 382.122C559.704 383.676 554.653 385.619 549.991 388.339L531.729 382.122 517.742 396.109 523.958 414.371C521.239 419.033 519.296 424.084 517.742 429.524L500.646 438.072 500.646 457.499 517.742 466.047C519.296 471.486 521.239 476.538 523.958 481.2L517.742 499.461 531.341 513.06 549.602 506.844C554.265 509.564 559.316 511.506 564.755 513.06L573.303 530.156 592.73 530.156 601.278 513.06C606.718 511.506 611.769 509.564 616.431 506.844L634.693 513.06 648.68 499.461 642.464 481.2C645.183 476.538 647.515 471.098 649.069 466.047L666.165 457.499 666.165 438.072 649.069 429.524Z" fill="#FFFFFF"/><path d="M495.595 618.355C479.276 618.355 466.454 605.145 466.454 589.215 466.454 572.896 479.665 560.074 495.595 560.074 511.914 560.074 524.735 573.284 524.735 589.215 524.735 605.145 511.914 618.355 495.595 618.355L495.595 618.355ZM555.042 555.8 561.258 537.539 547.271 523.551 529.009 529.768C524.347 527.048 518.907 525.105 513.856 523.551L505.308 506.455 485.881 506.455 477.333 523.551C471.894 525.105 466.843 527.048 462.18 529.768L443.919 523.551 430.32 537.15 436.148 555.411C433.428 560.074 431.485 565.514 429.931 570.565L412.835 579.112 412.835 598.54 429.931 607.088C431.485 612.527 433.428 617.578 436.148 622.241L430.32 640.502 443.919 654.101 462.18 648.273C466.843 650.993 471.894 652.935 477.333 654.49L485.881 671.585 505.308 671.585 513.856 654.49C519.296 652.935 524.347 650.993 529.009 648.273L547.271 654.49 560.87 640.502 555.042 622.629C557.761 617.967 559.704 612.916 561.258 607.476L578.354 598.928 578.354 579.501 561.258 570.953C559.704 565.514 557.761 560.463 555.042 555.8Z" fill="#FFFFFF"/></g></g></g></g></svg>